<?xml version="1.0" encoding="UTF-8" standalone="no"?>
<svg
  width="420"
  height="63"
  viewBox="0 0 111.125 16.668751"
  version="1.1"
  id="svg5"
  xmlns="http://www.w3.org/2000/svg"
  xmlns:svg="http://www.w3.org/2000/svg">
  <g
    id="layer1"
    transform="translate(-26.166667,-47.668578)">
    <g
      id="g321">
      <path
        fill="#4eb04e"
        d="m 39.025579,51.848786 c 0.111076,0.111621 0.174019,0.262312 0.174019,0.420441 v 11.472769 c 0,0.329283 -0.264733,0.595314 -0.592409,0.595314 H 26.759075 c -0.327675,0 -0.592408,-0.266031 -0.592408,-0.595314 V 48.263893 c 0,-0.329282 0.264733,-0.595313 0.592408,-0.595313 h 7.862338 c 0.157357,0 0.309159,0.06326 0.420236,0.174873 z m -1.192218,0.693911 -3.484088,-3.501179 v 3.501179 z m -6.739915,5.114659 1.094287,2.473704 a 0.29620295,0.29765584 0 0 0 0.270657,0.176734 h 0.445414 a 0.29620295,0.29765584 0 0 0 0.270842,-0.17692 l 1.094097,-2.480776 v 2.929309 a 0.29620295,0.29765584 0 0 0 0.296389,0.297652 h 0.506135 a 0.29620295,0.29765584 0 0 0 0.296204,-0.297652 v -5.060152 a 0.29620295,0.29765584 0 0 0 -0.296204,-0.297657 h -0.643313 a 0.29620295,0.29765584 0 0 0 -0.271581,0.178969 l -1.47139,3.396622 -1.471385,-3.396808 a 0.29620295,0.29765584 0 0 0 -0.271585,-0.178783 h -0.647015 a 0.29620295,0.29765584 0 0 0 -0.296204,0.297657 v 5.060152 a 0.29620295,0.29765584 0 0 0 0.296204,0.297652 h 0.502249 a 0.29620295,0.29765584 0 0 0 0.296199,-0.297652 z"
        id="path308"
        style="stroke-width:0.0185581" />
      <g
        id="g965"
        transform="matrix(0.55291228,0,0,0.55562434,23.011993,23.519122)">
        <path
          fill="#3c96cc"
          d="m 101.28312,46.629956 c -1.328117,-2.419502 -3.674756,-3.12911 -5.330286,-3.165471 -2.03759,-0.03636 -3.71127,1.109737 -3.40201,1.873851 0.0728,0.163738 0.45485,1.018794 0.69132,1.364417 0.34562,0.509288 0.946,0.109158 1.16424,0 1.49346,-0.77551 3.47365,-0.520249 4.4571,1.473577 1.546366,3.038167 -3.21999,9.278093 -9.1871,4.948308 -5.967189,-4.311643 -11.770548,-2.892574 -14.408441,-2.019372 -2.619676,0.873273 -3.838572,1.746473 -2.801631,3.765846 1.418923,2.747054 0.945997,1.91014 2.310414,4.184195 2.164895,3.620324 6.931319,-1.673678 6.931319,-1.673678 -3.5476,5.330366 -6.585696,4.038667 -7.750013,2.183184 -1.055157,-1.673746 -1.873778,-3.620326 -1.873778,-3.620326 -8.968835,3.238199 -6.549334,17.410166 -6.549334,17.410166 l 4.457165,0.01811 c 1.127881,-5.25764 5.203061,-5.039244 5.894306,0.01822 l 3.402004,0.01811 c 3.00173,-10.260452 10.624379,0.03644 10.624379,0.03644 l 4.43889,0.01811 c -1.23705,-7.004044 2.49237,-9.205303 4.83922,-13.298623 2.383206,-4.111471 4.620906,-9.132649 2.092236,-13.535161 M 87.475045,60.346994 c -2.18427,-0.724122 -1.40078,-2.947221 -1.40078,-2.947221 l 1.45543,0.473005 c -0.12737,0.181952 -0.18195,0.400269 -0.14552,0.636727 0.0546,0.545802 0.563939,0.946003 1.127879,0.891418 0.49123,-0.05455 0.87329,-0.436632 0.92787,-0.891418 l 1.14603,0.382059 c -0.16366,0.673102 -1.45624,2.003913 -3.110909,1.45543"
          id="path326"
          style="stroke-width:0.0725792" />
        <path
          fill="#3c96cc"
          d="m 131.47043,48.602208 c -1.10677,-2.016261 -3.06231,-2.607603 -4.44193,-2.637903 -1.69799,-0.0303 -3.09273,0.924784 -2.83502,1.561549 0.0607,0.136448 0.37905,0.848998 0.57611,1.137019 0.28802,0.424408 0.78834,0.09096 0.9702,0 1.24456,-0.646262 2.89471,-0.433543 3.71427,1.227985 1.28865,2.531818 -2.68334,7.731778 -7.65594,4.123608 -4.97268,-3.59305 -9.80883,-2.410488 -12.00708,-1.682816 -2.18308,0.72773 -3.19883,1.4554 -2.3347,3.138218 1.18244,2.289221 0.78832,1.59179 1.92535,3.486844 1.80408,3.01695 5.77613,-1.394739 5.77613,-1.394739 -2.95635,4.441992 -5.48811,3.365571 -6.45838,1.819328 -0.8793,-1.394794 -1.56149,-3.01695 -1.56149,-3.01695 -7.474071,2.69851 -5.4578,14.508531 -5.4578,14.508531 l 3.71432,0.0151 c 0.93991,-4.381383 4.3359,-4.199385 4.91194,0.0151 l 2.83502,0.0151 c 2.50145,-8.550408 8.85368,0.0304 8.85368,0.0304 l 3.69907,0.0151 c -1.03087,-5.836722 2.077,-7.671113 4.03271,-11.082227 1.98602,-3.426241 3.85078,-7.610574 1.74354,-11.27935 m -11.50677,11.430996 c -1.82022,-0.603439 -1.16731,-2.456029 -1.16731,-2.456029 l 1.21286,0.394173 c -0.10615,0.151627 -0.15162,0.333558 -0.12127,0.530608 0.0455,0.454837 0.46996,0.788339 0.93991,0.742851 0.40935,-0.04546 0.72773,-0.363862 0.77322,-0.742851 l 0.95501,0.318383 c -0.13638,0.560921 -1.21352,1.669935 -2.59242,1.212865"
          id="path326-3"
          style="stroke-width:0.0604829" />
        <path
          fill="#3c96cc"
          d="m 65.460114,50.57449 c -0.88541,-1.613004 -2.44984,-2.086076 -3.55353,-2.110316 -1.35839,-0.02424 -2.47418,0.739825 -2.26801,1.249235 0.0486,0.109159 0.30324,0.679197 0.46089,0.909613 0.23041,0.339525 0.63067,0.07277 0.77615,0 0.99565,-0.517008 2.31577,-0.346834 2.97141,0.982385 1.03092,2.025447 -2.14666,6.185402 -6.12473,3.298875 -3.97813,-2.87443 -7.84704,-1.928384 -9.60563,-1.346248 -1.74646,0.582182 -2.55906,1.164316 -1.86776,2.510566 0.94595,1.831371 0.63066,1.273428 1.54028,2.789466 1.44326,2.413553 4.62089,-1.115787 4.62089,-1.115787 -2.36508,3.553582 -4.39048,2.692448 -5.16669,1.455457 -0.70344,-1.115831 -1.24919,-2.413552 -1.24919,-2.413552 -5.97922,2.158801 -4.36622,11.606788 -4.36622,11.606788 l 2.97144,0.0121 c 0.75193,-3.505093 3.46871,-3.359494 3.92954,0.0121 l 2.26801,0.0121 c 2.00115,-6.840305 7.08292,0.0243 7.08292,0.0243 l 2.95925,0.0121 c -0.8247,-4.669362 1.66159,-6.136871 3.22615,-8.865754 1.58882,-2.740984 3.08062,-6.088439 1.39483,-9.023451 m -9.20538,9.144768 c -1.45618,-0.48275 -0.93385,-1.964817 -0.93385,-1.964817 l 0.97029,0.315337 c -0.0849,0.121302 -0.1213,0.266846 -0.097,0.424485 0.0364,0.363869 0.37597,0.63067 0.75193,0.594279 0.32747,-0.03637 0.58218,-0.291088 0.61857,-0.594279 l 0.76401,0.254706 c -0.10911,0.448735 -0.97082,1.335944 -2.07393,0.970289"
          id="path326-3-6"
          style="stroke-width:0.0483862" />
      </g>
      <path
        fill="#eeb121"
        d="m 111.23063,47.66858 h -6.63493 a 1.6587358,1.6668719 0 0 0 -1.65874,1.666884 v 13.334967 a 1.6587358,1.6668719 0 0 0 1.65874,1.666879 h 9.95241 a 1.6587358,1.6668719 0 0 0 1.65873,-1.666879 V 52.669198 Z m -0.82937,1.666884 4.14685,4.16719 h -4.14685 z m -3.70644,11.668112 h -0.63032 v -1.175988 h -1.04168 v 1.175988 h -0.63613 v -2.811178 h 0.63613 v 1.08013 h 1.04252 v -1.08013 h 0.63031 z m 2.4881,-2.276975 h -0.76384 v 2.276975 h -0.6353 v -2.276975 h -0.75058 v -0.534203 h 2.14972 z m 2.72614,2.276975 -0.0415,-1.075975 c -0.0141,-0.337554 -0.0247,-0.74677 -0.0247,-1.155985 h -0.0132 c -0.0863,0.359228 -0.20318,0.759273 -0.31102,1.089301 l -0.34003,1.096795 h -0.49514 L 110.3857,59.86841 a 12.440518,12.501539 0 0 1 -0.25377,-1.096794 h -0.009 c -0.0176,0.380048 -0.0282,0.813454 -0.049,1.163485 l -0.0498,1.068475 h -0.5847 l 0.17914,-2.811178 h 0.84181 l 0.27453,0.938446 c 0.0863,0.325861 0.17416,0.675893 0.23553,1.005098 h 0.0141 c 0.0788,-0.325867 0.17335,-0.69675 0.26541,-1.009291 l 0.29773,-0.934253 h 0.82605 l 0.15344,2.811178 z m 2.84804,0 h -1.7483 v -2.811178 h 0.63612 v 2.276937 h 1.11301 z"
        id="path335"
        style="stroke-width:0.831398" />
      <path
        fill="#673ab8"
        d="m 130.1099,54.895545 a 1.1016658,1.1070814 0 0 0 -1.10166,1.107066 1.1016658,1.1070814 0 0 0 1.10166,1.107092 1.1016658,1.1070814 0 0 0 1.10167,-1.107092 1.1016658,1.1070814 0 0 0 -1.10167,-1.107066 m 3.80056,-3.007328 a 2.0733987,2.0835912 0 0 1 0.44437,0.03754 1.1749259,1.1807017 0 0 1 0.33174,0.119438 0.76024623,0.76398344 0 0 1 0.20036,0.163275 0.69113287,0.69453035 0 0 1 0.12773,0.218924 1.0366993,1.0417957 0 0 1 0.058,0.313924 c 0.005,0.135449 -0.0105,0.276412 -0.0402,0.418792 a 3.110098,3.1253869 0 0 1 -0.16874,0.540355 c -0.0946,0.23205 -0.21002,0.458377 -0.33864,0.679244 q -0.25572,0.433388 -0.56468,0.838293 c -0.1003,0.132563 -0.20739,0.261188 -0.31445,0.389655 q -0.22751,-0.248062 -0.46513,-0.486176 A 16.58719,16.66873 0 0 0 131.764,53.8734 l -0.15882,0.205537 0.15882,-0.205537 -0.0131,-0.0105 -0.31863,0.411154 0.0131,0.0105 a 15.896057,15.9742 0 0 1 1.37122,1.208497 q 0.24947,0.246487 0.48587,0.506991 c -0.0684,0.07508 -0.134,0.152775 -0.20453,0.226537 Q 132.995,56.334991 132.89,56.440516 l 0.3663,0.368104 q 0.10998,-0.109725 0.21628,-0.222337 c 0.0588,-0.06116 0.11338,-0.126263 0.17137,-0.189 0.0449,0.05407 0.0932,0.105525 0.13687,0.160387 a 8.9847275,9.0288949 0 0 1 0.62823,0.876487 c 0.14575,0.233361 0.27923,0.472971 0.38981,0.719537 a 3.4556645,3.4726522 0 0 1 0.20244,0.559781 2.0733987,2.0835912 0 0 1 0.0705,0.442417 c 0.005,0.123637 -0.005,0.243862 -0.0345,0.352826 a 0.76024623,0.76398344 0 0 1 -0.1084,0.234674 h -5.5e-4 a 0.69113287,0.69453035 0 0 1 -0.17971,0.177713 1.0366993,1.0417957 0 0 1 -0.28888,0.132562 c -0.12983,0.03754 -0.26955,0.05617 -0.41469,0.06247 -0.18388,0.0079 -0.37183,-0.0079 -0.56257,-0.03464 a 5.5290631,5.5562434 0 0 1 -0.73743,-0.165374 c -0.32071,-0.09502 -0.63586,-0.21315 -0.94618,-0.347261 h -5.5e-4 a 12.440392,12.501547 0 0 1 -1.18185,-0.597292 l -0.0182,-0.0105 a 16.58719,16.66873 0 0 0 1.16525,-0.829262 l -0.14522,-0.187426 0.14574,0.187426 0.0131,-0.0105 -0.32002,-0.409788 -0.0105,0.0105 a 15.896057,15.9742 0 0 1 -1.49836,1.045273 13.131525,13.196078 0 0 1 -1.26269,0.682736 8.9847275,9.0288949 0 0 1 -0.99799,0.400049 6.2201962,6.2507738 0 0 1 -0.78927,0.205537 3.4556645,3.4726522 0 0 1 -0.58954,0.06247 2.0733987,2.0835912 0 0 1 -0.44441,-0.03806 1.1749259,1.1807017 0 0 1 -0.33174,-0.119437 0.71186687,0.71536639 0 0 1 -0.32829,-0.381307 1.0366993,1.0417957 0 0 1 -0.058,-0.314606 1.7278322,1.736326 0 0 1 0.04,-0.418818 c 0.0378,-0.181388 0.0967,-0.361147 0.16926,-0.539647 a 5.5290631,5.5562434 0 0 1 0.33867,-0.679245 8.2935946,8.3343653 0 0 1 0.87842,-1.227238 q 0.24058,0.261975 0.49211,0.511875 a 16.58719,16.66873 0 0 0 1.39605,1.225846 l 0.31864,-0.41047 a 15.896057,15.9742 0 0 1 -1.35138,-1.186945 q -0.26332,-0.260399 -0.51214,-0.534109 0.10162,-0.113925 0.20401,-0.225749 a 15.896057,15.9742 0 0 1 0.2142,-0.220237 l -0.3663,-0.368104 q -0.11206,0.113138 -0.22178,0.22785 c -0.0587,0.06195 -0.11415,0.12705 -0.17135,0.189525 -0.0378,-0.04594 -0.0789,-0.08899 -0.11676,-0.13545 a 9.6758598,9.7234251 0 0 1 -0.63309,-0.877195 6.2201962,6.2507738 0 0 1 -0.39462,-0.722294 3.4556645,3.4726522 0 0 1 -0.21288,-0.582041 2.0733987,2.0835912 0 0 1 -0.0705,-0.442417 1.1749259,1.1807017 0 0 1 0.0345,-0.352117 q 0.0353,-0.129936 0.1084,-0.235462 h 5.5e-4 c 0.047,-0.06799 0.10919,-0.129149 0.17971,-0.177712 a 1.0366993,1.0417957 0 0 1 0.28959,-0.132038 1.7278322,1.736326 0 0 1 0.414,-0.06247 3.1792112,3.1948398 0 0 1 0.56259,0.03334 5.5290631,5.5562434 0 0 1 0.73743,0.166687 8.2935946,8.3343653 0 0 1 0.94614,0.34726 11.749259,11.807017 0 0 1 1.19982,0.607031 16.58719,16.66873 0 0 0 -1.17077,0.834828 l 0.31929,0.409762 a 15.896057,15.9742 0 0 1 1.47213,-1.030679 13.131525,13.196078 0 0 1 1.26475,-0.687591 c 0.32763,-0.154088 0.66072,-0.29169 1.00078,-0.404906 a 6.2201962,6.2507738 0 0 1 0.79203,-0.210525 c 0.20609,-0.03885 0.41123,-0.06379 0.61304,-0.06668 m -0.008,-0.520904 h -5.5e-4 a 4.1467974,4.1671825 0 0 0 -0.7008,0.07507 6.9113287,6.9453035 0 0 0 -0.86046,0.228375 9.6758598,9.7234251 0 0 0 -1.05675,0.427822 c -0.40293,0.189001 -0.79204,0.404224 -1.17215,0.632021 a 12.440392,12.501547 0 0 0 -1.48732,-0.772327 8.9847275,9.0288949 0 0 0 -1.00559,-0.368786 5.8055164,5.8340555 0 0 0 -0.81004,-0.181912 3.4556645,3.4726522 0 0 0 -0.65656,-0.03806 c -0.17554,0.0079 -0.35661,0.02993 -0.53633,0.08138 a 1.5204923,1.5279669 0 0 0 -0.43955,0.204225 1.2233052,1.2293188 0 0 0 -0.49555,0.70426 1.658719,1.666873 0 0 0 -0.0533,0.511874 2.5571917,2.5697625 0 0 0 0.0878,0.554215 4.1467974,4.1671825 0 0 0 0.24267,0.666067 6.9113287,6.9453035 0 0 0 0.4285,0.783431 9.6758598,9.7234251 0 0 0 0.66835,0.927201 c 0.0554,0.06799 0.11467,0.132037 0.17135,0.198712 a 11.058126,11.112487 0 0 0 -0.3815,0.471581 c -0.21498,0.283369 -0.41745,0.579232 -0.59924,0.890398 a 5.8055164,5.8340555 0 0 0 -0.37181,0.746603 3.6630044,3.6810112 0 0 0 -0.19565,0.630655 2.2116253,2.2224973 0 0 0 -0.0504,0.543111 1.5204923,1.5279669 0 0 0 0.0899,0.477829 v 7.25e-4 a 1.2302166,1.2362642 0 0 0 0.5598,0.652863 1.658719,1.666873 0 0 0 0.48171,0.175613 2.5571917,2.5697625 0 0 0 0.55636,0.04856 4.1467974,4.1671825 0 0 0 0.67525,-0.07088 l 5.6e-4,-7.25e-4 a 6.2201962,6.2507738 0 0 0 0.85699,-0.222337 9.6758598,9.7234251 0 0 0 1.05465,-0.423675 13.131525,13.196078 0 0 0 1.20398,-0.645907 q 0.12512,0.07508 0.25285,0.148575 a 12.440392,12.501547 0 0 0 1.23368,0.623699 8.9847275,9.0288949 0 0 0 1.00559,0.368104 c 0.26264,0.0777 0.53357,0.14175 0.81001,0.181911 a 3.6630044,3.6810112 0 0 0 0.65656,0.03885 c 0.17554,-0.0079 0.35665,-0.03045 0.53633,-0.0819 0.15072,-0.04384 0.30135,-0.108412 0.43958,-0.204225 a 1.2302166,1.2362642 0 0 0 0.49552,-0.70426 c 0.047,-0.1722 0.06,-0.345187 0.0533,-0.511191 a 2.5571917,2.5697625 0 0 0 -0.0878,-0.554925 4.1467974,4.1671825 0 0 0 -0.23143,-0.641051 6.9113287,6.9453035 0 0 0 -0.42296,-0.782721 10.366993,10.417957 0 0 0 -0.66282,-0.92581 c -0.0622,-0.07717 -0.12982,-0.15015 -0.19356,-0.224963 q 0.19618,-0.230474 0.38151,-0.47158 c 0.21497,-0.284077 0.41745,-0.57994 0.5992,-0.891081 a 5.8055164,5.8340555 0 0 0 0.37185,-0.746628 3.6630044,3.6810112 0 0 0 0.19564,-0.629947 c 0.0366,-0.173513 0.0575,-0.35629 0.0505,-0.543794 a 1.5204923,1.5279669 0 0 0 -0.0899,-0.477854 v -6.6e-4 a 1.2302166,1.2362642 0 0 0 -0.5598,-0.652863 1.658719,1.666873 0 0 0 -0.48173,-0.175087 2.5571917,2.5697625 0 0 0 -0.55637,-0.04856 m -3.7936,-3.699067 7.18225,4.167183 v 8.334365 l -7.18225,4.167182 -7.18297,-4.167182 v -8.334403 z"
        id="path344"
        style="stroke-width:0.692829" />
    </g>
  </g>
</svg>
